# Blender v2.83.2 OBJ File: 'MainLoby.blend'
# www.blender.org
mtllib LobbyPillar3.mtl
o Circle.019
v 13.870477 4.521825 -19.084610
v 19.259882 4.521825 -13.695205
v 13.870477 4.521825 -13.695205
v 19.259882 4.521825 -19.084610
v 12.754294 4.521825 -16.389906
v 16.565180 4.521825 -12.579022
v 20.376064 4.521825 -16.389906
v 16.565180 4.521825 -20.200792
v 18.615616 51.844864 -21.340097
v 11.648208 4.521825 -19.667889
v 13.044381 4.521825 -17.848269
v 18.023542 4.521825 -12.869110
v 11.648208 4.521825 -13.111926
v 13.287197 4.521825 -11.472936
v 20.085978 4.521825 -17.848270
v 18.023542 4.521825 -19.910704
v 19.843161 4.521825 -11.472936
v 13.044381 4.521825 -14.931544
v 15.106817 4.521825 -12.869110
v 21.482151 4.521825 -13.111926
v 13.287197 4.521825 -21.306879
v 19.843161 4.521825 -21.306879
v 20.085978 4.521825 -14.931545
v 21.482151 4.521825 -19.667889
v 15.106815 4.521825 -19.910704
v 16.565180 4.521825 -21.306879
v 16.565180 4.521825 -11.472936
v 11.648208 4.521825 -16.389906
v 21.482151 4.521825 -16.389906
v 20.353891 51.844864 -20.178619
v 21.515371 51.844864 -18.440344
v 11.648208 4.521825 -11.472936
v 21.482151 4.521825 -14.750916
v 21.482151 4.521825 -21.306879
v 11.648208 4.521825 -14.750916
v 11.648208 4.521825 -18.028898
v 11.648208 4.521825 -21.306879
v 18.204170 4.521825 -11.472936
v 14.926188 4.521825 -21.306879
v 18.204170 4.521825 -21.306879
v 14.926188 4.521825 -11.472936
v 21.482151 4.521825 -18.028898
v 20.353891 51.844864 -12.601195
v 21.482151 4.521825 -11.472936
v 18.615618 51.844864 -11.439717
v 12.776466 51.844864 -20.178619
v 11.614989 51.844864 -18.440342
v 13.044381 48.532639 -17.848269
v 13.870477 48.532639 -19.084610
v 18.023542 48.532639 -12.869110
v 19.259882 48.532639 -13.695205
v 20.085978 48.532639 -17.848270
v 19.259882 48.532639 -19.084610
v 18.023542 48.532639 -19.910704
v 13.044381 48.532639 -14.931544
v 12.754294 48.532639 -16.389906
v 15.106817 48.532639 -12.869110
v 16.565180 48.532639 -12.579022
v 20.085978 48.532639 -14.931545
v 20.376064 48.532639 -16.389906
v 15.106815 48.532639 -19.910704
v 16.565180 48.532639 -20.200792
v 13.870477 48.532639 -13.695205
v 11.614989 51.844864 -14.339470
v 11.207131 51.844864 -16.389906
v 14.514745 51.844864 -11.439717
v 16.565180 51.844864 -11.031858
v 21.515371 51.844864 -14.339473
v 21.923227 51.844864 -16.389906
v 14.514743 51.844864 -21.340097
v 16.565180 51.844864 -21.747955
v 12.776466 51.844864 -12.601195
v 14.514743 55.432217 -21.340097
v 16.565180 55.432217 -21.747955
v 21.515371 55.432217 -14.339473
v 21.923227 55.432217 -16.389906
v 14.514745 55.432217 -11.439717
v 16.565180 55.432217 -11.031858
v 11.614989 55.432217 -14.339470
v 11.207131 55.432217 -16.389906
v 18.615616 55.432217 -21.340097
v 20.353891 55.432217 -20.178619
v 21.515371 55.432217 -18.440344
v 18.615618 55.432217 -11.439717
v 20.353891 55.432217 -12.601195
v 11.614989 55.432217 -18.440342
v 12.776466 55.432217 -20.178619
v 16.565180 55.432217 -18.694305
v 16.565180 55.432217 -14.085509
v 16.565180 55.432217 -16.389906
v 18.869577 55.432217 -16.389906
v 14.260782 55.432217 -16.389906
v 12.776466 55.432217 -12.601195
v 14.260782 55.432217 -14.085509
v 18.869577 55.432217 -14.085509
v 18.869577 55.432217 -18.694305
v 14.260782 55.432217 -18.694305
v 11.648208 6.260346 -19.667889
v 13.870477 6.260346 -19.084610
v 13.044381 6.260346 -17.848269
v 18.023542 6.260346 -12.869110
v 19.259882 6.260346 -13.695205
v 11.648208 6.260346 -13.111926
v 13.870477 6.260346 -13.695205
v 13.287197 6.260346 -11.472936
v 20.085978 6.260346 -17.848270
v 19.259882 6.260346 -19.084610
v 18.023542 6.260346 -19.910704
v 19.843161 6.260346 -11.472936
v 13.044381 6.260346 -14.931544
v 12.754294 6.260346 -16.389906
v 15.106817 6.260346 -12.869110
v 16.565180 6.260346 -12.579022
v 20.085978 6.260346 -14.931545
v 20.376064 6.260346 -16.389906
v 15.106815 6.260346 -19.910704
v 16.565180 6.260346 -20.200792
v 16.565180 6.260346 -11.472936
v 11.648208 6.260346 -16.389906
v 21.482151 6.260346 -13.111926
v 13.287197 6.260346 -21.306879
v 19.843161 6.260346 -21.306879
v 21.482151 6.260346 -19.667889
v 16.565180 6.260346 -21.306879
v 21.482151 6.260346 -16.389906
v 11.648208 6.260346 -11.472936
v 21.482151 6.260346 -14.750916
v 21.482151 6.260346 -21.306879
v 11.648208 6.260346 -14.750916
v 11.648208 6.260346 -18.028898
v 11.648208 6.260346 -21.306879
v 18.204170 6.260346 -11.472936
v 14.926188 6.260346 -21.306879
v 18.204170 6.260346 -21.306879
v 14.926188 6.260346 -11.472936
v 21.482151 6.260346 -18.028898
v 21.482151 6.260346 -11.472936
vt 1.812017 -2.057061
vt 1.812017 2.355133
vt 1.859333 2.355125
vt 1.859333 -2.057069
vt 0.501726 0.107653
vt 0.193575 0.107653
vt 0.193575 0.009566
vt 0.501726 0.009566
vt 0.501726 0.205739
vt 0.193575 0.205739
vt 1.273002 -2.057069
vt 1.273003 2.355125
vt 1.320320 2.355133
vt 1.320318 -2.057061
vt 1.027151 -2.057069
vt 1.027154 2.355124
vt 1.074471 2.355132
vt 1.074468 -2.057061
vt 0.487409 0.500000
vt 0.795560 0.500000
vt 0.795560 0.598087
vt 0.487409 0.598087
vt 0.193575 -0.088521
vt 0.501726 -0.088521
vt 1.518849 -2.057069
vt 1.518853 2.355124
vt 1.566169 2.355132
vt 1.566167 -2.057061
vt 1.724588 -2.057090
vt 1.724588 2.355104
vt 1.764701 2.355125
vt 1.764701 -2.057069
vt 1.121788 2.355124
vt 1.121783 -2.057069
vt 1.899446 2.355104
vt 1.899446 -2.057090
vt 1.367634 -2.057069
vt 1.367636 2.355125
vt 1.407749 2.355104
vt 1.407747 -2.057090
vt 0.487409 0.990434
vt 0.795560 0.990434
vt 0.795560 1.088520
vt 0.487409 1.088521
vt 0.501726 0.303826
vt 0.193575 0.303826
vt 0.501726 0.401913
vt 0.193575 0.401913
vt 1.232890 -2.057090
vt 1.232890 2.355104
vt 1.103711 1.677041
vt 0.795560 1.677041
vt 0.795560 1.578955
vt 1.103711 1.578955
vt 0.487409 0.892347
vt 0.795560 0.892347
vt 1.478738 -2.057090
vt 1.478739 2.355103
vt 1.613482 -2.057069
vt 1.613484 2.355124
vt 1.653597 2.355103
vt 1.653595 -2.057090
vt 1.161900 2.355103
vt 1.161896 -2.057090
vt 0.987038 -2.057090
vt 0.987041 2.355103
vt 0.487409 0.794260
vt 0.795560 0.794260
vt 0.552456 0.855639
vt 0.547805 0.920041
vt 0.563911 0.920043
vt 0.563911 0.855641
vt 0.611976 0.855639
vt 0.607326 0.920041
vt 0.623432 0.920043
vt 0.623432 0.855641
vt 0.504391 0.855641
vt 0.504392 0.920043
vt 0.520497 0.920041
vt 0.515847 0.855639
vt 0.694407 0.855639
vt 0.699058 0.920041
vt 0.712711 0.920035
vt 0.704118 0.855635
vt 0.542745 0.855635
vt 0.534152 0.920035
vt 0.671496 0.855639
vt 0.666846 0.920041
vt 0.682951 0.920043
vt 0.682951 0.855641
vt 0.580017 0.920041
vt 0.575367 0.855639
vt 0.602265 0.855635
vt 0.593672 0.920035
vt 0.661785 0.855635
vt 0.653192 0.920035
vt 0.534152 0.920035
vt 0.525558 0.855635
vt 0.585078 0.855635
vt 0.639537 0.920041
vt 0.634887 0.855639
vt 0.653192 0.920035
vt 0.644598 0.855635
vt 0.492936 0.855639
vt 0.488285 0.920041
vt 0.483225 0.855635
vt 0.474631 0.920035
vt 0.488285 0.989784
vt 0.504392 0.989787
vt 0.653192 0.989779
vt 0.666846 0.989785
vt 0.580017 0.989785
vt 0.593672 0.989779
vt 0.639537 0.989784
vt 0.653192 0.989779
vt 0.534152 0.989779
vt 0.547806 0.989785
vt 0.563911 0.989787
vt 0.623432 0.989787
vt 0.474632 0.989779
vt 0.699058 0.989785
vt 0.712711 0.989779
vt 0.682951 0.989787
vt 0.607326 0.989784
vt 0.520497 0.989784
vt 0.534152 0.989779
vt -0.451361 0.500000
vt -0.397616 0.500000
vt -0.378490 0.632994
vt -0.451361 0.598087
vt -0.236382 0.500000
vt -0.182638 0.500000
vt -0.201764 0.632993
vt -0.242305 0.583555
vt -0.451361 0.892347
vt -0.405579 0.881537
vt -0.378490 0.955527
vt -0.451361 0.990434
vt -0.451361 0.696174
vt -0.405579 0.706983
vt -0.415091 0.794260
vt -0.451361 0.794260
vt -0.343872 0.500000
vt -0.290127 0.500000
vt -0.290127 0.566195
vt -0.337949 0.583555
vt -0.397616 1.088521
vt -0.451361 1.088521
vt -0.128893 0.500000
vt -0.128893 0.598087
vt -0.337949 1.004966
vt -0.290127 1.022326
vt -0.290127 1.088521
vt -0.343872 1.088521
vt -0.242305 1.004965
vt -0.201764 0.955527
vt -0.182638 1.088521
vt -0.236382 1.088521
vt -0.128893 0.990434
vt -0.128893 1.088521
vt -0.165163 0.794260
vt -0.128893 0.794260
vt -0.128893 0.892347
vt -0.174675 0.881537
vt -0.128893 0.696173
vt -0.174676 0.706983
vt 0.501726 0.500000
vt 0.193575 0.500000
vt 0.487409 1.186608
vt 0.179258 1.186608
vt 0.179258 1.088521
vt 0.487409 1.088521
vt 1.103711 1.480868
vt 0.795560 1.480868
vt 0.795560 1.382781
vt 1.103711 1.382781
vt 1.103711 1.284694
vt 0.795560 1.284694
vt 0.795560 1.186608
vt 1.103711 1.186608
vt 0.795560 1.088521
vt 1.103711 1.088521
vt 0.487409 1.677042
vt 0.179258 1.677042
vt 0.179258 1.578955
vt 0.487409 1.578955
vt 0.795560 0.696173
vt 0.487409 0.696173
vt 0.487409 1.480868
vt 0.179258 1.480868
vt 0.179258 1.382781
vt 0.487409 1.382781
vt 0.487409 1.284694
vt 0.179258 1.284694
vt 0.618668 0.367324
vt 0.618668 0.333524
vt 0.616139 0.333526
vt 0.616139 0.367325
vt 0.597449 0.265910
vt 0.597450 0.299709
vt 0.599978 0.299711
vt 0.599978 0.265911
vt 0.614501 0.164528
vt 0.614501 0.198328
vt 0.617030 0.198329
vt 0.617030 0.164530
vt 0.604266 0.367326
vt 0.604266 0.401126
vt 0.606794 0.401124
vt 0.606794 0.367325
vt 0.613398 0.237697
vt 0.611216 0.234880
vt 0.609828 0.237204
vt 0.609828 0.239720
vt 0.620043 0.234616
vt 0.617128 0.232138
vt 0.613779 0.233101
vt 0.616721 0.236157
vt 0.624483 0.239227
vt 0.622263 0.236922
vt 0.618941 0.238462
vt 0.621160 0.240768
vt 0.617838 0.242309
vt 0.615618 0.240003
vt 0.611216 0.242044
vt 0.613779 0.243823
vt 0.624102 0.243823
vt 0.620753 0.244786
vt 0.617128 0.244786
vt 0.628053 0.237204
vt 0.626665 0.234880
vt 0.628053 0.239720
vt 0.626665 0.242044
vt 0.624102 0.233101
vt 0.620753 0.232138
vt 0.609323 0.367326
vt 0.609323 0.401126
vt 0.611467 0.401130
vt 0.611467 0.367331
vt 0.609828 0.164534
vt 0.609828 0.198333
vt 0.611972 0.198329
vt 0.611972 0.164530
vt 0.592777 0.265916
vt 0.592777 0.299715
vt 0.594921 0.299711
vt 0.594921 0.265911
vt 0.613611 0.367324
vt 0.613611 0.333524
vt 0.611467 0.333520
vt 0.611467 0.367319
vt 0.602122 0.367331
vt 0.602122 0.401130
vt 0.619173 0.198333
vt 0.619173 0.164534
vt 0.602122 0.299715
vt 0.602122 0.265916
vt 0.620812 0.367319
vt 0.620812 0.333520
vn 0.1951 0.0000 -0.9808
vn 1.0000 0.0000 0.0000
vn 0.9808 0.0000 -0.1951
vn -0.9808 0.0000 0.1951
vn 0.0000 0.0000 1.0000
vn 0.1951 0.0000 0.9808
vn -0.5556 0.0000 -0.8315
vn -0.9808 0.0000 -0.1951
vn 0.5556 0.0000 -0.8315
vn 0.8315 0.0000 0.5556
vn 0.8315 0.0000 -0.5556
vn -1.0000 0.0000 0.0000
vn 0.5556 0.0000 0.8315
vn -0.1951 0.0000 -0.9808
vn -0.5556 0.0000 0.8315
vn -0.8315 0.0000 -0.5556
vn 0.9808 0.0000 0.1951
vn -0.8315 0.0000 0.5556
vn -0.1951 0.0000 0.9808
vn 0.8917 -0.4165 -0.1774
vn 0.1774 -0.4165 0.8917
vn -0.8917 -0.4165 -0.1774
vn 0.5051 -0.4165 -0.7559
vn 0.7559 -0.4165 -0.5051
vn -0.1774 -0.4165 -0.8917
vn 0.8917 -0.4165 0.1774
vn 0.5051 -0.4165 0.7559
vn -0.5051 -0.4165 -0.7559
vn -0.7559 -0.4165 -0.5051
vn 0.7559 -0.4165 0.5051
vn -0.1774 -0.4165 0.8917
vn -0.5051 -0.4165 0.7559
vn -0.8917 -0.4165 0.1774
vn -0.7559 -0.4165 0.5051
vn 0.1774 -0.4165 -0.8917
vn 0.0000 1.0000 0.0000
vn 0.0000 0.0000 -1.0000
usemtl Marble
s 1
f 8/1/1 62/2/1 54/3/1 16/4/1
f 33/5/2 127/6/2 120/7/2 20/8/2
f 29/9/2 125/10/2 127/6/2 33/5/2
f 15/11/3 52/12/3 60/13/3 7/14/3
f 18/15/4 55/16/4 56/17/4 5/18/4
f 44/19/5 137/20/5 109/21/5 17/22/5
f 20/8/2 120/7/2 137/23/2 44/24/2
f 12/25/6 50/26/6 58/27/6 6/28/6
f 1/29/7 49/30/7 61/31/7 25/32/7
f 5/18/8 56/17/8 48/33/8 11/34/8
f 16/4/9 54/3/9 53/35/9 4/36/9
f 23/37/10 59/38/10 51/39/10 2/40/10
f 14/41/5 105/42/5 126/43/5 32/44/5
f 42/45/2 136/46/2 125/10/2 29/9/2
f 24/47/2 123/48/2 136/46/2 42/45/2
f 4/49/11 53/50/11 52/12/11 15/11/11
f 32/51/12 126/52/12 103/53/12 13/54/12
f 41/55/5 135/56/5 105/42/5 14/41/5
f 2/57/13 51/58/13 50/26/13 12/25/13
f 25/32/14 61/31/14 62/2/14 8/1/14
f 19/59/15 57/60/15 63/61/15 3/62/15
f 11/34/16 48/33/16 49/63/16 1/64/16
f 7/14/17 60/13/17 59/38/17 23/37/17
f 3/65/18 63/66/18 55/16/18 18/15/18
f 27/67/5 118/68/5 135/56/5 41/55/5
f 6/28/19 58/27/19 57/60/19 19/59/19
f 52/69/20 31/70/20 69/71/20 60/72/20
f 50/73/21 45/74/21 67/75/21 58/76/21
f 56/77/22 65/78/22 47/79/22 48/80/22
f 54/81/23 9/82/23 30/83/23 53/84/23
f 53/85/24 30/86/24 31/70/24 52/69/24
f 61/87/25 70/88/25 71/89/25 62/90/25
f 60/72/26 69/71/26 68/91/26 59/92/26
f 51/93/27 43/94/27 45/74/27 50/73/27
f 49/95/28 46/96/28 70/88/28 61/87/28
f 48/80/29 47/79/29 46/97/29 49/98/29
f 59/92/30 68/91/30 43/94/30 51/99/30
f 58/76/31 67/75/31 66/100/31 57/101/31
f 57/101/32 66/100/32 72/102/32 63/103/32
f 55/104/33 64/105/33 65/78/33 56/77/33
f 63/106/34 72/107/34 64/105/34 55/104/34
f 62/90/35 71/89/35 9/82/35 54/81/35
f 64/105/4 79/108/4 80/109/4 65/78/4
f 46/96/7 87/110/7 73/111/7 70/88/7
f 68/91/10 75/112/10 85/113/10 43/94/10
f 66/100/15 77/114/15 93/115/15 72/102/15
f 30/86/11 82/116/11 83/117/11 31/70/11
f 69/71/17 76/118/17 75/112/17 68/91/17
f 67/75/19 78/119/19 77/114/19 66/100/19
f 72/107/18 93/120/18 79/108/18 64/105/18
f 9/82/9 81/121/9 82/122/9 30/83/9
f 70/88/14 73/111/14 74/123/14 71/89/14
f 71/89/1 74/123/1 81/121/1 9/82/1
f 31/70/3 83/117/3 76/118/3 69/71/3
f 45/74/6 84/124/6 78/119/6 67/75/6
f 65/78/8 80/109/8 86/125/8 47/79/8
f 47/79/16 86/125/16 87/126/16 46/97/16
f 43/94/13 85/113/13 84/124/13 45/74/13
f 137/127/36 120/128/36 102/129/36 109/130/36
f 136/131/36 123/132/36 107/133/36 106/134/36
f 135/135/36 112/136/36 104/137/36 105/138/36
f 132/139/36 101/140/36 113/141/36 118/142/36
f 127/143/36 125/144/36 115/145/36 114/146/36
f 105/138/36 104/137/36 103/147/36 126/148/36
f 120/128/36 127/143/36 114/146/36 102/129/36
f 123/132/36 128/149/36 122/150/36 107/133/36
f 110/151/36 111/152/36 119/153/36 129/154/36
f 104/137/36 110/151/36 129/154/36 103/147/36
f 100/155/36 99/156/36 98/157/36 130/158/36
f 111/152/36 100/155/36 130/158/36 119/153/36
f 99/156/36 121/159/36 131/160/36 98/157/36
f 109/130/36 102/129/36 101/140/36 132/139/36
f 117/161/36 124/162/36 133/163/36 116/164/36
f 116/164/36 133/163/36 121/159/36 99/156/36
f 107/133/36 122/150/36 134/165/36 108/166/36
f 108/166/36 134/165/36 124/162/36 117/161/36
f 118/142/36 113/141/36 112/136/36 135/135/36
f 125/144/36 136/131/36 106/134/36 115/145/36
f 34/167/2 128/168/2 123/48/2 24/47/2
f 22/169/37 122/170/37 128/171/37 34/172/37
f 35/173/12 129/174/12 119/175/12 28/176/12
f 13/54/12 103/53/12 129/174/12 35/173/12
f 36/177/12 130/178/12 98/179/12 10/180/12
f 28/176/12 119/175/12 130/178/12 36/177/12
f 10/180/12 98/179/12 131/181/12 37/182/12
f 37/183/37 131/184/37 121/185/37 21/186/37
f 17/22/5 109/21/5 132/187/5 38/188/5
f 38/188/5 132/187/5 118/68/5 27/67/5
f 39/189/37 133/190/37 124/191/37 26/192/37
f 21/186/37 121/185/37 133/190/37 39/189/37
f 40/193/37 134/194/37 122/170/37 22/169/37
f 26/192/37 124/191/37 134/194/37 40/193/37
usemtl Rest
f 16/195/19 108/196/19 117/197/19 8/198/19
f 7/199/4 115/200/4 106/201/4 15/202/4
f 6/203/14 113/204/14 101/205/14 12/206/14
f 11/207/17 100/208/17 111/209/17 5/210/17
f 97/211/36 73/212/36 87/213/36 86/214/36
f 96/215/36 81/216/36 74/217/36 88/218/36
f 95/219/36 91/220/36 90/221/36 89/222/36
f 94/223/36 92/224/36 80/225/36 79/226/36
f 89/222/36 90/221/36 92/224/36 94/223/36
f 78/227/36 89/222/36 94/223/36 77/228/36
f 77/228/36 94/223/36 79/226/36 93/229/36
f 75/230/36 76/231/36 91/220/36 95/219/36
f 85/232/36 75/230/36 95/219/36 84/233/36
f 84/233/36 95/219/36 89/222/36 78/227/36
f 83/234/36 82/235/36 81/216/36 96/215/36
f 76/231/36 83/234/36 96/215/36 91/220/36
f 91/220/36 96/215/36 88/218/36 90/221/36
f 88/218/36 74/217/36 73/212/36 97/211/36
f 90/221/36 88/218/36 97/211/36 92/224/36
f 92/224/36 97/211/36 86/214/36 80/225/36
f 18/236/11 110/237/11 104/238/11 3/239/11
f 3/240/9 104/241/9 112/242/9 19/243/9
f 2/244/16 102/245/16 114/246/16 23/247/16
f 25/248/13 116/249/13 99/250/13 1/251/13
f 5/210/3 111/209/3 110/237/3 18/236/3
f 19/243/1 112/242/1 113/204/1 6/203/1
f 23/247/8 114/246/8 115/200/8 7/199/8
f 8/198/6 117/197/6 116/249/6 25/248/6
f 1/252/10 99/253/10 100/208/10 11/207/10
f 12/206/7 101/205/7 102/254/7 2/255/7
f 15/202/18 106/201/18 107/256/18 4/257/18
f 4/258/15 107/259/15 108/196/15 16/195/15
