# Blender v2.83.2 OBJ File: 'MainLoby.blend'
# www.blender.org
mtllib LobbyPillar4.mtl
o Circle.020
v 13.870477 4.521825 19.084610
v 19.259882 4.521825 13.695205
v 13.870477 4.521825 13.695205
v 19.259882 4.521825 19.084610
v 16.565180 4.521825 12.579022
v 12.754294 4.521825 16.389906
v 20.376064 4.521825 16.389906
v 16.565180 4.521825 20.200792
v 16.565180 51.913074 11.013029
v 13.287197 4.521825 21.306879
v 18.023542 4.521825 12.869110
v 11.648208 4.521825 13.111926
v 13.044381 4.521825 14.931545
v 20.085978 4.521825 14.931545
v 19.843161 4.521825 21.306879
v 18.023542 4.521825 19.910704
v 11.648208 4.521825 19.667889
v 13.287197 4.521825 11.472936
v 15.106817 4.521825 12.869110
v 21.482151 4.521825 13.111926
v 13.044381 4.521825 17.848269
v 19.843161 4.521825 11.472936
v 20.085978 4.521825 17.848269
v 21.482151 4.521825 19.667889
v 15.106817 4.521825 19.910704
v 11.648208 4.521825 16.389906
v 16.565180 4.521825 21.306879
v 21.482151 4.521825 16.389906
v 14.507537 51.913074 11.422318
v 20.367208 51.913074 20.191935
v 18.622822 51.913074 21.357494
v 21.532766 51.913074 14.332266
v 16.565180 4.521825 11.472936
v 14.926188 4.521825 11.472936
v 18.204170 4.521825 11.472936
v 21.482151 4.521825 11.472936
v 11.648208 4.521825 11.472936
v 12.763151 51.913074 12.587879
v 11.597591 51.913074 14.332266
v 20.367208 51.913074 12.587879
v 21.482151 4.521825 18.028898
v 18.204170 4.521825 21.306879
v 11.648208 4.521825 18.028898
v 11.648208 4.521825 14.750916
v 11.648208 4.521825 21.306879
v 14.926188 4.521825 21.306879
v 21.482151 4.521825 21.306879
v 21.482151 4.521825 14.750916
v 18.622822 51.913074 11.422318
v 18.023542 48.704735 12.869110
v 19.259882 48.704735 13.695205
v 13.044381 48.704735 14.931545
v 13.870477 48.704735 13.695205
v 20.085978 48.704735 14.931545
v 18.023542 48.704735 19.910704
v 19.259882 48.704735 19.084610
v 15.106817 48.704735 12.869110
v 16.565180 48.704735 12.579022
v 13.044381 48.704735 17.848269
v 12.754294 48.704735 16.389906
v 20.085978 48.704735 17.848269
v 20.376064 48.704735 16.389906
v 15.106817 48.704735 19.910704
v 16.565180 48.704735 20.200792
v 18.622822 55.281090 21.357494
v 16.565180 55.281090 11.013029
v 14.507537 55.281090 11.422318
v 11.188300 55.281090 16.389906
v 11.597591 55.281090 18.447550
v 13.870477 48.704735 19.084610
v 21.942060 55.281090 16.389906
v 21.532766 55.281090 18.447550
v 16.565180 55.281090 21.766787
v 14.507537 55.281090 21.357494
v 11.597591 51.913074 18.447550
v 11.188300 51.913074 16.389906
v 21.532766 51.913074 18.447550
v 21.942060 51.913074 16.389906
v 14.507537 51.913074 21.357494
v 16.565180 51.913074 21.766787
v 12.763151 51.913074 20.191935
v 20.367208 55.281090 20.191935
v 21.532766 55.281090 14.332266
v 20.367208 55.281090 12.587879
v 11.597591 55.281090 14.332266
v 12.763151 55.281090 12.587879
v 18.622822 55.281090 11.422318
v 16.565180 55.281090 14.077412
v 16.565180 55.281090 18.702402
v 16.565180 55.281090 16.389906
v 18.877676 55.281090 16.389906
v 14.252684 55.281090 16.389906
v 12.763151 55.281090 20.191935
v 14.252684 55.281090 18.702402
v 18.877676 55.281090 18.702402
v 18.877676 55.281090 14.077412
v 14.252684 55.281090 14.077412
v 13.287197 6.260346 21.306879
v 13.870477 6.260346 19.084610
v 18.023542 6.260346 12.869110
v 19.259882 6.260346 13.695205
v 11.648208 6.260346 13.111926
v 13.870477 6.260346 13.695205
v 13.044381 6.260346 14.931545
v 20.085978 6.260346 14.931545
v 19.843161 6.260346 21.306879
v 19.259882 6.260346 19.084610
v 18.023542 6.260346 19.910704
v 11.648208 6.260346 19.667889
v 15.106817 6.260346 12.869110
v 16.565180 6.260346 12.579022
v 13.044381 6.260346 17.848269
v 12.754294 6.260346 16.389906
v 20.085978 6.260346 17.848269
v 20.376064 6.260346 16.389906
v 15.106817 6.260346 19.910704
v 16.565180 6.260346 20.200792
v 11.648208 6.260346 16.389906
v 16.565180 6.260346 21.306879
v 13.287197 6.260346 11.472936
v 21.482151 6.260346 13.111926
v 19.843161 6.260346 11.472936
v 21.482151 6.260346 19.667889
v 21.482151 6.260346 16.389906
v 16.565180 6.260346 11.472936
v 14.926188 6.260346 11.472936
v 18.204170 6.260346 11.472936
v 21.482151 6.260346 11.472936
v 11.648208 6.260346 11.472936
v 21.482151 6.260346 18.028898
v 18.204170 6.260346 21.306879
v 11.648208 6.260346 18.028898
v 11.648208 6.260346 14.750916
v 11.648208 6.260346 21.306879
v 14.926188 6.260346 21.306879
v 21.482151 6.260346 21.306879
v 21.482151 6.260346 14.750916
vt 0.809877 0.009566
vt 0.501726 0.009566
vt 0.501726 -0.088521
vt 0.809877 -0.088521
vt 0.135365 -2.057069
vt 0.135369 2.372378
vt 0.175482 2.372356
vt 0.175477 -2.057090
vt 0.179258 1.186608
vt -0.128893 1.186608
vt -0.128893 1.088521
vt 0.179258 1.088521
vt 0.193575 0.500000
vt -0.114576 0.500000
vt -0.114576 0.401913
vt 0.193575 0.401913
vt 0.628794 3.031700
vt 0.628794 -1.397746
vt 0.581478 -1.397754
vt 0.581477 3.031693
vt 0.780874 -2.057069
vt 0.780874 2.372378
vt 0.828191 2.372386
vt 0.828191 -2.057061
vt 0.382080 -2.057069
vt 0.382082 2.372378
vt 0.422195 2.372357
vt 0.422192 -2.057090
vt 0.179258 1.382781
vt -0.128893 1.382781
vt -0.128893 1.284694
vt 0.179258 1.284694
vt 0.334763 -2.057061
vt 0.334765 2.372386
vt 0.668906 3.031722
vt 0.668907 -1.397725
vt 0.287447 -2.057069
vt 0.287449 2.372378
vt 0.000619 -2.057090
vt 0.000624 2.372356
vt 0.040737 2.372378
vt 0.040732 -2.057069
vt 0.088048 -2.057061
vt 0.088053 2.372385
vt 0.875507 -2.057069
vt 0.875507 2.372378
vt 0.915620 2.372357
vt 0.915620 -2.057090
vt 0.247334 -2.057090
vt 0.247336 2.372357
vt 0.740762 -2.057090
vt 0.740762 2.372357
vt 0.193575 0.303826
vt -0.114576 0.303826
vt -0.114576 0.205740
vt 0.193575 0.205739
vt 0.534163 -1.397746
vt 0.534160 3.031700
vt 0.494049 -1.397725
vt 0.494047 3.031722
vt 0.313853 0.858985
vt 0.309146 0.921367
vt 0.325308 0.921369
vt 0.325308 0.858987
vt 0.341471 0.921367
vt 0.336764 0.858985
vt 0.265579 0.858987
vt 0.265579 0.921369
vt 0.281742 0.921367
vt 0.277034 0.858985
vt 0.254124 0.858985
vt 0.249417 0.921367
vt 0.444767 0.858987
vt 0.444767 0.921369
vt 0.460929 0.921367
vt 0.456222 0.858985
vt 0.373582 0.127863
vt 0.368875 0.065481
vt 0.355173 0.065487
vt 0.363871 0.127867
vt 0.433311 0.858985
vt 0.428604 0.921367
vt 0.355173 0.921361
vt 0.346475 0.858981
vt 0.406204 0.127867
vt 0.414902 0.065487
vt 0.401200 0.065481
vt 0.396493 0.127863
vt 0.244412 0.858981
vt 0.235715 0.921361
vt 0.304142 0.858981
vt 0.295444 0.921361
vt 0.423600 0.858981
vt 0.414902 0.921361
vt 0.295444 0.921361
vt 0.286746 0.858981
vt 0.385038 0.065479
vt 0.385038 0.127862
vt 0.474631 0.921361
vt 0.465933 0.858981
vt 0.368875 0.000002
vt 0.355173 0.000008
vt 0.414902 0.000008
vt 0.401200 0.000002
vt 0.428604 0.986846
vt 0.444767 0.986849
vt 0.341471 0.986846
vt 0.355173 0.986841
vt 0.249417 0.986846
vt 0.265579 0.986848
vt 0.235715 0.986841
vt 0.325308 0.986848
vt 0.414902 0.986841
vt 0.385038 0.000000
vt 0.460929 0.986846
vt 0.474631 0.986841
vt 0.309146 0.986846
vt 0.281742 0.986846
vt 0.295444 0.986841
vt 0.295444 0.986841
vt 0.501726 -0.677042
vt 0.809877 -0.677042
vt 0.809877 -0.578955
vt 0.501726 -0.578955
vt 0.179258 1.578955
vt -0.128893 1.578955
vt -0.128893 1.480868
vt 0.179258 1.480868
vt 0.193575 0.009566
vt -0.114576 0.009566
vt -0.114576 -0.088521
vt 0.193575 -0.088521
vt 0.501726 -0.284694
vt 0.809877 -0.284694
vt 0.809877 -0.186608
vt 0.501726 -0.186608
vt 0.501726 -0.382781
vt 0.809877 -0.382781
vt 0.809877 -0.088521
vt 0.501726 -0.088521
vt 0.809877 0.500000
vt 0.501726 0.500000
vt 0.501726 0.401913
vt 0.809877 0.401913
vt -0.128893 -0.284694
vt -0.128893 -0.186608
vt -0.201764 -0.221515
vt -0.174675 -0.295504
vt -0.128893 -0.677042
vt -0.128893 -0.578955
vt -0.201764 -0.544048
vt -0.182638 -0.677042
vt -0.343872 -0.677041
vt -0.337949 -0.593486
vt -0.378490 -0.544048
vt -0.397616 -0.677041
vt -0.236382 -0.677042
vt -0.242306 -0.593486
vt -0.290127 -0.610847
vt -0.290127 -0.677041
vt -0.128893 -0.480868
vt -0.128893 -0.382781
vt -0.165163 -0.382781
vt -0.174676 -0.470058
vt -0.290127 -0.154716
vt -0.290127 -0.088521
vt -0.343872 -0.088521
vt -0.337949 -0.172076
vt -0.397616 -0.088521
vt -0.378490 -0.221514
vt -0.182638 -0.088521
vt -0.236382 -0.088521
vt -0.242305 -0.172076
vt -0.128893 -0.088521
vt -0.451361 -0.088521
vt -0.451361 -0.186608
vt -0.405579 -0.470058
vt -0.415091 -0.382781
vt -0.451361 -0.382781
vt -0.451361 -0.480868
vt -0.451361 -0.578955
vt -0.405579 -0.295504
vt -0.451361 -0.284694
vt -0.451361 -0.677041
vt 0.179258 1.677042
vt -0.128893 1.677042
vt -0.114576 0.107653
vt 0.193575 0.107653
vt 0.809877 -0.480868
vt 0.501726 -0.480868
vt 0.809877 0.303826
vt 0.501726 0.303826
vt 0.501726 0.205740
vt 0.809877 0.205740
vt 0.809877 0.107653
vt 0.501726 0.107653
vt 0.611972 0.096920
vt 0.611972 0.130719
vt 0.614501 0.130718
vt 0.614501 0.096918
vt 0.618668 0.299716
vt 0.618668 0.333516
vt 0.620812 0.333520
vt 0.620812 0.299721
vt 0.598771 0.423820
vt 0.594169 0.424143
vt 0.596741 0.425928
vt 0.600102 0.426894
vt 0.597206 0.418362
vt 0.592777 0.419286
vt 0.592777 0.421810
vt 0.597988 0.421091
vt 0.605071 0.417276
vt 0.601139 0.417819
vt 0.601921 0.420548
vt 0.605854 0.420005
vt 0.606636 0.422734
vt 0.602703 0.423277
vt 0.603740 0.426894
vt 0.607101 0.425928
vt 0.611065 0.419286
vt 0.611065 0.421810
vt 0.609673 0.424143
vt 0.603740 0.414202
vt 0.600102 0.414202
vt 0.607101 0.415168
vt 0.609673 0.416953
vt 0.596741 0.415168
vt 0.594169 0.416953
vt 0.599978 0.367326
vt 0.599978 0.401126
vt 0.602122 0.401130
vt 0.602122 0.367331
vt 0.602122 0.265916
vt 0.602122 0.299715
vt 0.604266 0.299711
vt 0.604266 0.265911
vt 0.613611 0.299716
vt 0.613611 0.333516
vt 0.616139 0.333514
vt 0.616139 0.299715
vt 0.594921 0.367326
vt 0.594921 0.401126
vt 0.597450 0.401124
vt 0.597449 0.367325
vt 0.606794 0.299709
vt 0.606794 0.265910
vt 0.617030 0.096920
vt 0.617030 0.130719
vt 0.619173 0.130723
vt 0.619173 0.096924
vt 0.609323 0.265911
vt 0.609323 0.299711
vt 0.611467 0.299715
vt 0.611467 0.265916
vt 0.592777 0.367331
vt 0.592777 0.401130
vt 0.611467 0.299721
vt 0.611467 0.333520
vt 0.609828 0.096924
vt 0.609828 0.130723
vn -1.0000 0.0000 0.0000
vn -0.8315 0.0000 -0.5556
vn 0.0000 0.0000 -1.0000
vn 1.0000 0.0000 0.0000
vn 0.1951 0.0000 0.9808
vn -0.1951 0.0000 -0.9808
vn 0.8315 0.0000 0.5556
vn 0.9808 0.0000 0.1951
vn 0.5556 0.0000 0.8315
vn 0.9808 0.0000 -0.1951
vn -0.8315 0.0000 0.5556
vn -0.9808 0.0000 -0.1951
vn -0.9808 0.0000 0.1951
vn 0.5556 0.0000 -0.8315
vn 0.8315 0.0000 -0.5556
vn -0.5556 0.0000 -0.8315
vn 0.1951 0.0000 -0.9808
vn -0.1951 0.0000 0.9808
vn -0.5556 0.0000 0.8315
vn 0.8846 -0.4318 -0.1760
vn 0.8846 -0.4318 0.1760
vn -0.8846 -0.4318 -0.1760
vn -0.8846 -0.4318 0.1760
vn 0.1760 -0.4318 -0.8846
vn -0.5011 -0.4318 0.7500
vn -0.1760 -0.4318 -0.8846
vn 0.7500 -0.4318 0.5011
vn 0.5011 -0.4318 0.7500
vn -0.7500 -0.4318 0.5011
vn 0.7500 -0.4318 -0.5011
vn -0.5011 -0.4318 -0.7500
vn -0.7500 -0.4318 -0.5011
vn 0.1760 -0.4318 0.8846
vn 0.5011 -0.4318 -0.7500
vn -0.1760 -0.4318 0.8846
vn 0.0000 0.0000 1.0000
vn 0.0000 1.0000 -0.0000
usemtl Marble
s 1
f 12/1/1 102/2/1 129/3/1 37/4/1
f 13/5/2 52/6/2 53/7/2 3/8/2
f 22/9/3 122/10/3 128/11/3 36/12/3
f 36/13/4 128/14/4 121/15/4 20/16/4
f 16/17/5 55/18/5 64/19/5 8/20/5
f 19/21/6 57/22/6 58/23/6 5/24/6
f 23/25/7 61/26/7 56/27/7 4/28/7
f 33/29/3 125/30/3 127/31/3 35/32/3
f 35/32/3 127/31/3 122/10/3 22/9/3
f 7/33/8 62/34/8 61/26/8 23/25/8
f 4/35/9 56/36/9 55/18/9 16/17/9
f 14/37/10 54/38/10 62/34/10 7/33/10
f 1/39/11 70/40/11 59/41/11 21/42/11
f 6/43/12 60/44/12 52/6/12 13/5/12
f 21/42/13 59/41/13 60/44/13 6/43/13
f 11/45/14 50/46/14 51/47/14 2/48/14
f 2/49/15 51/50/15 54/38/15 14/37/15
f 3/51/16 53/52/16 57/22/16 19/21/16
f 48/53/4 137/54/4 124/55/4 28/56/4
f 20/16/4 121/15/4 137/54/4 48/53/4
f 5/24/17 58/23/17 50/46/17 11/45/17
f 8/20/18 64/19/18 63/57/18 25/58/18
f 25/58/19 63/57/19 70/59/19 1/60/19
f 54/61/20 32/62/20 78/63/20 62/64/20
f 62/64/21 78/63/21 77/65/21 61/66/21
f 60/67/22 76/68/22 39/69/22 52/70/22
f 59/71/23 75/72/23 76/68/23 60/67/23
f 58/73/24 9/74/24 49/75/24 50/76/24
f 63/77/25 79/78/25 81/79/25 70/80/25
f 57/81/26 29/82/26 9/74/26 58/73/26
f 61/66/27 77/65/27 30/83/27 56/84/27
f 56/85/28 30/86/28 31/87/28 55/88/28
f 70/89/29 81/90/29 75/72/29 59/71/29
f 51/91/30 40/92/30 32/62/30 54/61/30
f 53/93/31 38/94/31 29/82/31 57/81/31
f 52/70/32 39/69/32 38/95/32 53/96/32
f 55/88/33 31/87/33 80/97/33 64/98/33
f 50/76/34 49/75/34 40/99/34 51/100/34
f 64/98/35 80/97/35 79/78/35 63/77/35
f 79/78/19 74/101/19 93/102/19 81/79/19
f 30/86/9 82/103/9 65/104/9 31/87/9
f 29/82/6 67/105/6 66/106/6 9/74/6
f 77/65/7 72/107/7 82/108/7 30/83/7
f 75/72/13 69/109/13 68/110/13 76/68/13
f 81/90/11 93/111/11 69/109/11 75/72/11
f 78/63/8 71/112/8 72/107/8 77/65/8
f 38/94/16 86/113/16 67/105/16 29/82/16
f 80/97/18 73/114/18 74/101/18 79/78/18
f 31/87/5 65/104/5 73/114/5 80/97/5
f 49/75/14 87/115/14 84/116/14 40/99/14
f 32/62/10 83/117/10 71/112/10 78/63/10
f 39/69/2 85/118/2 86/119/2 38/95/2
f 76/68/12 68/110/12 85/118/12 39/69/12
f 40/92/15 84/120/15 83/117/15 32/62/15
f 9/74/17 66/106/17 87/115/17 49/75/17
f 47/121/36 136/122/36 106/123/36 15/124/36
f 18/125/3 120/126/3 126/127/3 34/128/3
f 34/128/3 126/127/3 125/30/3 33/29/3
f 24/129/4 123/130/4 136/131/4 47/132/4
f 46/133/36 135/134/36 98/135/36 10/136/36
f 27/137/36 119/138/36 135/134/36 46/133/36
f 10/136/36 98/135/36 134/139/36 45/140/36
f 45/141/1 134/142/1 109/143/1 17/144/1
f 137/145/37 121/146/37 101/147/37 105/148/37
f 136/149/37 123/150/37 107/151/37 106/152/37
f 135/153/37 116/154/37 99/155/37 98/156/37
f 131/157/37 108/158/37 117/159/37 119/160/37
f 130/161/37 124/162/37 115/163/37 114/164/37
f 111/165/37 125/166/37 126/167/37 110/168/37
f 110/168/37 126/167/37 120/169/37 103/170/37
f 101/147/37 122/171/37 127/172/37 100/173/37
f 100/173/37 127/172/37 125/166/37 111/165/37
f 121/146/37 128/174/37 122/171/37 101/147/37
f 103/170/37 120/169/37 129/175/37 102/176/37
f 123/150/37 130/161/37 114/164/37 107/151/37
f 106/152/37 107/151/37 108/158/37 131/157/37
f 112/177/37 113/178/37 118/179/37 132/180/37
f 99/155/37 112/177/37 132/180/37 109/181/37
f 104/182/37 103/170/37 102/176/37 133/183/37
f 113/178/37 104/182/37 133/183/37 118/179/37
f 98/156/37 99/155/37 109/181/37 134/184/37
f 119/160/37 117/159/37 116/154/37 135/153/37
f 124/162/37 137/145/37 105/148/37 115/163/37
f 37/185/3 129/186/3 120/126/3 18/125/3
f 28/56/4 124/55/4 130/187/4 41/188/4
f 41/188/4 130/187/4 123/130/4 24/129/4
f 15/124/36 106/123/36 131/189/36 42/190/36
f 42/190/36 131/189/36 119/138/36 27/137/36
f 43/191/1 132/192/1 118/193/1 26/194/1
f 17/144/1 109/143/1 132/192/1 43/191/1
f 44/195/1 133/196/1 102/2/1 12/1/1
f 26/194/1 118/193/1 133/196/1 44/195/1
usemtl Rest
f 11/197/18 100/198/18 111/199/18 5/200/18
f 16/201/16 108/202/16 107/203/16 4/204/16
f 97/205/37 67/206/37 86/207/37 85/208/37
f 96/209/37 87/210/37 66/211/37 88/212/37
f 95/213/37 91/214/37 90/215/37 89/216/37
f 94/217/37 92/218/37 68/219/37 69/220/37
f 89/216/37 90/215/37 92/218/37 94/217/37
f 73/221/37 89/216/37 94/217/37 74/222/37
f 74/222/37 94/217/37 69/220/37 93/223/37
f 72/224/37 71/225/37 91/214/37 95/213/37
f 82/226/37 72/224/37 95/213/37 65/227/37
f 65/227/37 95/213/37 89/216/37 73/221/37
f 83/228/37 84/229/37 87/210/37 96/209/37
f 71/225/37 83/228/37 96/209/37 91/214/37
f 91/214/37 96/209/37 88/212/37 90/215/37
f 88/212/37 66/211/37 67/206/37 97/205/37
f 90/215/37 88/212/37 97/205/37 92/218/37
f 92/218/37 97/205/37 85/208/37 68/219/37
f 14/230/11 105/231/11 101/232/11 2/233/11
f 3/234/7 103/235/7 104/236/7 13/237/7
f 25/238/17 116/239/17 117/240/17 8/241/17
f 23/242/12 114/243/12 115/244/12 7/245/12
f 13/237/8 104/236/8 113/246/8 6/247/8
f 7/245/13 115/244/13 105/231/13 14/230/13
f 8/241/6 117/240/6 108/202/6 16/201/6
f 19/248/9 110/249/9 103/250/9 3/251/9
f 21/252/15 112/253/15 99/254/15 1/255/15
f 4/256/2 107/257/2 114/243/2 23/242/2
f 1/258/14 99/259/14 116/239/14 25/238/14
f 5/200/5 111/199/5 110/249/5 19/248/5
f 2/260/19 101/261/19 100/198/19 11/197/19
f 6/247/10 113/246/10 112/253/10 21/252/10
