# Blender v2.83.2 OBJ File: 'MainLoby.blend'
# www.blender.org
mtllib Pillar.mtl
o Pillar1_Circle
v -13.519933 4.521825 -19.084610
v -18.909338 4.521825 -13.695205
v -13.519933 4.521825 -13.695205
v -18.909338 4.521825 -19.084610
v -16.214634 4.521825 -20.200792
v -20.025520 4.521825 -16.389906
v -12.403751 4.521825 -16.389906
v -16.214634 4.521825 -12.579022
v -10.877874 51.844864 -16.389906
v -11.284111 51.844864 -14.347618
v -21.551395 51.844864 -16.389906
v -21.145157 51.844864 -14.347618
v -16.214634 51.844864 -21.726669
v -18.256924 51.844864 -21.320429
v -12.440975 51.844864 -12.616247
v -14.172346 51.844864 -11.459383
v -21.131607 4.521825 -19.667889
v -14.756273 4.521825 -19.910704
v -19.735432 4.521825 -17.848269
v -12.693838 4.521825 -17.848269
v -21.131607 4.521825 -13.111926
v -14.756273 4.521825 -12.869110
v -12.936654 4.521825 -11.472936
v -19.492617 4.521825 -11.472936
v -11.297664 4.521825 -19.667889
v -17.672997 4.521825 -19.910704
v -19.735432 4.521825 -14.931545
v -19.492617 4.521825 -21.306879
v -12.693838 4.521825 -14.931545
v -11.297664 4.521825 -13.111926
v -17.672997 4.521825 -12.869110
v -12.936654 4.521825 -21.306879
v -16.214634 4.521825 -21.306879
v -11.284111 51.844864 -18.432196
v -21.131607 4.521825 -16.389906
v -11.297664 4.521825 -16.389906
v -16.214634 4.521825 -11.472936
v -14.575644 4.521825 -11.472936
v -11.297664 4.521825 -14.750916
v -21.131607 4.521825 -14.750916
v -21.131607 4.521825 -18.028898
v -19.988295 51.844864 -20.163567
v -21.145157 51.844864 -18.432196
v -12.440975 51.844864 -20.163567
v -17.853626 4.521825 -21.306879
v -14.575644 4.521825 -21.306879
v -21.131607 4.521825 -11.472936
v -11.297664 4.521825 -21.306879
v -21.131607 4.521825 -21.306879
v -11.297664 4.521825 -11.472936
v -14.172346 51.844864 -21.320429
v -11.297664 4.521825 -18.028898
v -17.853626 4.521825 -11.472936
v -14.756273 48.532639 -19.910704
v -13.519933 48.532639 -19.084610
v -19.735432 48.532639 -17.848269
v -18.909338 48.532639 -19.084610
v -12.693838 48.532639 -17.848269
v -14.756273 48.532639 -12.869110
v -13.519933 48.532639 -13.695205
v -17.672997 48.532639 -19.910704
v -16.214634 48.532639 -20.200792
v -19.735432 48.532639 -14.931545
v -20.025520 48.532639 -16.389906
v -12.693838 48.532639 -14.931545
v -12.403751 48.532639 -16.389906
v -17.672997 48.532639 -12.869110
v -16.214634 48.532639 -12.579022
v -18.909338 48.532639 -13.695205
v -18.256924 51.844864 -11.459383
v -16.214634 51.844864 -11.053146
v -19.988295 51.844864 -12.616247
v -18.256924 55.432217 -11.459383
v -16.214634 55.432217 -11.053146
v -11.284111 55.432217 -14.347618
v -10.877874 55.432217 -16.389906
v -21.145157 55.432217 -14.347618
v -21.551395 55.432217 -16.389906
v -18.256924 55.432217 -21.320429
v -16.214634 55.432217 -21.726669
v -14.172346 55.432217 -11.459383
v -12.440975 55.432217 -12.616247
v -11.284111 55.432217 -18.432196
v -12.440975 55.432217 -20.163567
v -21.145157 55.432217 -18.432196
v -19.988295 55.432217 -20.163567
v -14.172346 55.432217 -21.320429
v -16.214634 55.432217 -18.685150
v -16.214634 55.432217 -14.094666
v -16.214634 55.432217 -16.389906
v -13.919394 55.432217 -16.389906
v -18.509876 55.432217 -16.389906
v -19.988295 55.432217 -12.616247
v -18.509876 55.432217 -14.094666
v -13.919394 55.432217 -14.094666
v -13.919394 55.432217 -18.685150
v -18.509876 55.432217 -18.685150
v -21.131607 6.260346 -19.667889
v -18.909338 6.260346 -19.084610
v -14.756273 6.260346 -19.910704
v -13.519933 6.260346 -19.084610
v -19.735432 6.260346 -17.848269
v -12.693838 6.260346 -17.848269
v -21.131607 6.260346 -13.111926
v -18.909338 6.260346 -13.695205
v -14.756273 6.260346 -12.869110
v -13.519933 6.260346 -13.695205
v -12.936654 6.260346 -11.472936
v -19.492617 6.260346 -11.472936
v -17.672997 6.260346 -19.910704
v -16.214634 6.260346 -20.200792
v -19.735432 6.260346 -14.931545
v -20.025520 6.260346 -16.389906
v -12.693838 6.260346 -14.931545
v -12.403751 6.260346 -16.389906
v -17.672997 6.260346 -12.869110
v -16.214634 6.260346 -12.579022
v -21.131607 6.260346 -16.389906
v -16.214634 6.260346 -11.472936
v -11.297664 6.260346 -19.667889
v -19.492617 6.260346 -21.306879
v -11.297664 6.260346 -13.111926
v -12.936654 6.260346 -21.306879
v -16.214634 6.260346 -21.306879
v -11.297664 6.260346 -16.389906
v -14.575644 6.260346 -11.472936
v -11.297664 6.260346 -14.750916
v -21.131607 6.260346 -14.750916
v -21.131607 6.260346 -18.028898
v -17.853626 6.260346 -21.306879
v -14.575644 6.260346 -21.306879
v -21.131607 6.260346 -11.472936
v -11.297664 6.260346 -21.306879
v -21.131607 6.260346 -21.306879
v -11.297664 6.260346 -11.472936
v -11.297664 6.260346 -18.028898
v -17.853626 6.260346 -11.472936
vt 0.019923 3.046872
vt 0.019918 -1.365322
vt -0.053032 -1.365343
vt -0.053025 3.046851
vt 0.592566 -2.057090
vt 0.592568 2.355103
vt 0.665519 2.355124
vt 0.665514 -2.057069
vt 1.103711 0.794260
vt 0.795560 0.794260
vt 0.795560 0.696173
vt 1.103711 0.696173
vt -0.751049 -2.057069
vt -0.750860 2.355124
vt 0.944839 2.355103
vt 0.944649 -2.057090
vt 0.795560 0.598087
vt 1.103711 0.598087
vt 0.179258 0.892347
vt 0.487409 0.892347
vt 0.487409 0.990434
vt 0.179258 0.990434
vt 1.037892 -2.057090
vt 1.037896 2.355103
vt 1.110846 2.355125
vt 1.110842 -2.057069
vt 0.179258 0.794260
vt 0.487409 0.794260
vt 1.103711 0.990434
vt 0.795560 0.990434
vt 0.795560 0.892347
vt 1.103711 0.892347
vt 0.501726 -0.284694
vt 0.193575 -0.284694
vt 0.193575 -0.382781
vt 0.501726 -0.382781
vt 0.751565 -2.057061
vt 0.751569 2.355132
vt 0.837618 2.355124
vt 0.837614 -2.057069
vt 0.220184 -2.057069
vt 0.220192 2.355124
vt 0.306243 2.355132
vt 0.306235 -2.057061
vt 0.501726 -0.480868
vt 0.193575 -0.480868
vt 0.193575 -0.578955
vt 0.501726 -0.578955
vt 0.501726 -0.186608
vt 0.193575 -0.186608
vt 1.196893 -2.057061
vt 1.196894 2.355133
vt 1.282944 2.355125
vt 1.282943 -2.057069
vt -0.139082 -1.365350
vt -0.139076 3.046843
vt 0.179258 0.696173
vt 0.487409 0.696173
vt 0.179258 0.598087
vt 0.487409 0.598087
vt 0.179258 0.500000
vt 0.487409 0.500000
vt -0.225133 -1.365343
vt -0.225125 3.046851
vt 0.910567 2.355103
vt 0.910563 -2.057090
vt -0.298083 -1.365322
vt -0.298075 3.046872
vt 1.355895 2.355103
vt 1.355892 -2.057090
vt 0.193575 -0.677041
vt 0.501726 -0.677042
vt 0.147234 -2.057090
vt 0.147242 2.355103
vt 0.801637 0.855641
vt 0.801637 0.920043
vt 0.817679 0.920041
vt 0.813092 0.855639
vt 0.753809 0.134147
vt 0.758395 0.069746
vt 0.742353 0.069744
vt 0.742353 0.134146
vt 0.726312 0.069746
vt 0.730898 0.134147
vt 0.839754 0.855635
vt 0.831279 0.920035
vt 0.844878 0.920041
vt 0.849465 0.855639
vt 0.860920 0.855641
vt 0.860920 0.920043
vt 0.876963 0.920041
vt 0.872375 0.855639
vt 0.890562 0.920035
vt 0.882087 0.855635
vt 0.931659 0.855639
vt 0.936246 0.920041
vt 0.949845 0.920035
vt 0.941371 0.855635
vt 0.780470 0.855635
vt 0.771995 0.920035
vt 0.785595 0.920041
vt 0.790181 0.855639
vt 0.763520 0.134151
vt 0.771995 0.069751
vt 0.899037 0.855635
vt 0.890562 0.920035
vt 0.904162 0.920041
vt 0.908749 0.855639
vt 0.831279 0.920035
vt 0.822803 0.855635
vt 0.920204 0.855641
vt 0.920204 0.920043
vt 0.712712 0.069751
vt 0.721187 0.134151
vt 0.785595 0.989784
vt 0.801637 0.989786
vt 0.920204 0.989787
vt 0.936246 0.989785
vt 0.831279 0.989779
vt 0.844878 0.989784
vt 0.876963 0.989784
vt 0.890562 0.989779
vt 0.949846 0.989779
vt 0.771995 0.989779
vt 0.771995 0.000008
vt 0.758395 0.000002
vt 0.860920 0.989787
vt 0.904162 0.989785
vt 0.726311 0.000002
vt 0.712711 0.000008
vt 0.817679 0.989784
vt 0.831279 0.989779
vt 0.742353 0.000000
vt 0.890562 0.989779
vt -0.128893 -0.284694
vt -0.083111 -0.295504
vt -0.056022 -0.221514
vt -0.128893 -0.186608
vt 0.086086 -0.677042
vt 0.139830 -0.677042
vt 0.120704 -0.544048
vt 0.080163 -0.593486
vt -0.128893 -0.677042
vt -0.075148 -0.677042
vt -0.056022 -0.544048
vt -0.128893 -0.578955
vt -0.021404 -0.677042
vt 0.032341 -0.677042
vt 0.032341 -0.610847
vt -0.015481 -0.593486
vt -0.128893 -0.480868
vt -0.083111 -0.470058
vt -0.092623 -0.382781
vt -0.128893 -0.382781
vt -0.015480 -0.172076
vt 0.032341 -0.154716
vt 0.032341 -0.088521
vt -0.021404 -0.088521
vt -0.075148 -0.088521
vt 0.080163 -0.172076
vt 0.120704 -0.221515
vt 0.139831 -0.088521
vt 0.086086 -0.088521
vt 0.157305 -0.382781
vt 0.193575 -0.382781
vt 0.193575 -0.284695
vt 0.147793 -0.295505
vt 0.193575 -0.186608
vt 0.193575 -0.578955
vt 0.193575 -0.480868
vt 0.147793 -0.470058
vt -0.128893 -0.088521
vt 0.193575 -0.677042
vt 0.193575 -0.088521
vt -0.143210 1.480868
vt -0.451361 1.480868
vt -0.451361 1.382781
vt -0.143210 1.382781
vt -0.143210 1.578955
vt -0.451361 1.578955
vt -0.143210 1.284694
vt -0.451361 1.284694
vt -0.451361 1.186607
vt -0.143210 1.186607
vt 1.103711 1.088520
vt 0.795560 1.088521
vt 0.487409 1.088521
vt 0.179258 1.088521
vt 0.501726 -0.088521
vt 0.193575 -0.088521
vt -0.451361 1.088521
vt -0.143210 1.088521
vt 0.795560 0.500000
vt 1.103711 0.500000
vt -0.143210 1.677041
vt -0.451361 1.677041
vt 0.597449 0.299715
vt 0.597449 0.333514
vt 0.599978 0.333516
vt 0.599978 0.299716
vt 0.611972 0.130725
vt 0.611972 0.164524
vt 0.614501 0.164523
vt 0.614501 0.130723
vt 0.594921 0.333521
vt 0.594921 0.367321
vt 0.597449 0.367319
vt 0.597450 0.333520
vt 0.617030 0.198335
vt 0.617030 0.232134
vt 0.619173 0.232138
vt 0.619173 0.198339
vt 0.609828 0.130729
vt 0.609828 0.164528
vt 0.611972 0.198335
vt 0.611972 0.232134
vt 0.614501 0.232133
vt 0.614501 0.198333
vt 0.592777 0.333526
vt 0.592777 0.367325
vt 0.617030 0.164524
vt 0.617030 0.130725
vt 0.599978 0.367321
vt 0.599978 0.333521
vt 0.624424 0.251847
vt 0.626598 0.254653
vt 0.627980 0.252338
vt 0.627980 0.249832
vt 0.617806 0.254916
vt 0.620710 0.257383
vt 0.624045 0.256424
vt 0.621115 0.253381
vt 0.613384 0.250323
vt 0.615595 0.252619
vt 0.618904 0.251085
vt 0.616693 0.248788
vt 0.620002 0.247254
vt 0.622213 0.249550
vt 0.626598 0.247517
vt 0.624045 0.245745
vt 0.613763 0.245745
vt 0.617099 0.244786
vt 0.620710 0.244786
vt 0.609828 0.252338
vt 0.611210 0.254653
vt 0.609828 0.249832
vt 0.611210 0.247517
vt 0.613763 0.256424
vt 0.617099 0.257383
vt 0.602122 0.367325
vt 0.602122 0.333526
vt 0.619173 0.164528
vt 0.619173 0.130729
vt 0.594921 0.299716
vt 0.594921 0.333516
vt 0.592777 0.299721
vt 0.592777 0.333520
vt 0.609828 0.198339
vt 0.609828 0.232138
vt 0.602122 0.333520
vt 0.602122 0.299721
vn -0.5556 0.0000 -0.8315
vn 0.5556 0.0000 0.8315
vn -1.0000 0.0000 0.0000
vn -0.8315 0.0000 -0.5556
vn 0.0000 0.0000 1.0000
vn 0.8315 0.0000 -0.5556
vn 1.0000 0.0000 0.0000
vn -0.1951 0.0000 0.9808
vn 0.1951 0.0000 0.9808
vn -0.9808 0.0000 0.1951
vn 0.9808 0.0000 0.1951
vn -0.1951 0.0000 -0.9808
vn 0.9808 0.0000 -0.1951
vn -0.9808 0.0000 -0.1951
vn 0.1951 0.0000 -0.9808
vn -0.5556 0.0000 0.8315
vn 0.5556 0.0000 -0.8315
vn 0.8315 0.0000 0.5556
vn -0.8315 0.0000 0.5556
vn -0.8938 -0.4117 -0.1778
vn -0.1778 -0.4117 -0.8938
vn 0.1778 -0.4117 -0.8938
vn 0.5063 -0.4118 0.7577
vn -0.1778 -0.4117 0.8938
vn -0.5063 -0.4117 0.7577
vn 0.7577 -0.4117 0.5063
vn -0.7577 -0.4117 0.5063
vn -0.5063 -0.4117 -0.7577
vn 0.7577 -0.4117 -0.5063
vn 0.1778 -0.4117 0.8938
vn -0.7577 -0.4117 -0.5063
vn 0.8938 -0.4117 0.1778
vn 0.8938 -0.4117 -0.1778
vn 0.5063 -0.4117 -0.7577
vn -0.8938 -0.4117 0.1778
vn 0.0000 1.0000 0.0000
vn 0.0000 0.0000 -1.0000
usemtl Marble
s 1
f 4/1/1 57/2/1 61/3/1 26/4/1
f 3/5/2 60/6/2 59/7/2 22/8/2
f 35/9/3 118/10/3 129/11/3 41/12/3
f 19/13/4 56/14/4 57/15/4 4/16/4
f 41/12/3 129/11/3 98/17/3 17/18/3
f 53/19/5 137/20/5 109/21/5 24/22/5
f 1/23/6 55/24/6 58/25/6 20/26/6
f 37/27/5 119/28/5 137/20/5 53/19/5
f 21/29/3 104/30/3 128/31/3 40/32/3
f 40/32/3 128/31/3 118/10/3 35/9/3
f 52/33/7 136/34/7 125/35/7 36/36/7
f 8/37/8 68/38/8 67/39/8 31/40/8
f 22/8/9 59/7/9 68/38/9 8/37/9
f 27/41/10 63/42/10 64/43/10 6/44/10
f 39/45/7 127/46/7 122/47/7 30/48/7
f 25/49/7 120/50/7 136/34/7 52/33/7
f 36/36/7 125/35/7 127/46/7 39/45/7
f 7/51/11 66/52/11 65/53/11 29/54/11
f 26/4/12 61/3/12 62/55/12 5/56/12
f 20/26/13 58/25/13 66/52/13 7/51/13
f 6/44/14 64/43/14 56/14/14 19/13/14
f 38/57/5 126/58/5 119/28/5 37/27/5
f 23/59/5 108/60/5 126/58/5 38/57/5
f 50/61/5 135/62/5 108/60/5 23/59/5
f 5/56/15 62/55/15 54/63/15 18/64/15
f 31/40/16 67/39/16 69/65/16 2/66/16
f 18/64/17 54/63/17 55/67/17 1/68/17
f 29/54/18 65/53/18 60/69/18 3/70/18
f 30/48/7 122/47/7 135/71/7 50/72/7
f 2/73/19 69/74/19 63/42/19 27/41/19
f 64/75/20 11/76/20 43/77/20 56/78/20
f 61/79/21 14/80/21 13/81/21 62/82/21
f 62/82/22 13/81/22 51/83/22 54/84/22
f 60/85/23 15/86/23 16/87/23 59/88/23
f 68/89/24 71/90/24 70/91/24 67/92/24
f 67/92/25 70/91/25 72/93/25 69/94/25
f 65/95/26 10/96/26 15/97/26 60/98/26
f 69/99/27 72/100/27 12/101/27 63/102/27
f 57/103/28 42/104/28 14/80/28 61/79/28
f 55/105/29 44/106/29 34/107/29 58/108/29
f 59/88/30 16/87/30 71/90/30 68/89/30
f 56/78/31 43/77/31 42/109/31 57/110/31
f 66/111/32 9/112/32 10/96/32 65/95/32
f 58/108/33 34/107/33 9/112/33 66/111/33
f 54/84/34 51/83/34 44/113/34 55/114/34
f 63/102/35 12/101/35 11/76/35 64/75/35
f 12/101/10 77/115/10 78/116/10 11/76/10
f 9/112/11 76/117/11 75/118/11 10/96/11
f 15/86/2 82/119/2 81/120/2 16/87/2
f 70/91/16 73/121/16 93/122/16 72/93/16
f 10/96/18 75/118/18 82/123/18 15/97/18
f 72/100/19 93/124/19 77/115/19 12/101/19
f 42/104/1 86/125/1 79/126/1 14/80/1
f 16/87/9 81/120/9 74/127/9 71/90/9
f 34/107/13 83/128/13 76/117/13 9/112/13
f 51/83/17 87/129/17 84/130/17 44/113/17
f 11/76/14 78/116/14 85/131/14 43/77/14
f 43/77/4 85/131/4 86/132/4 42/109/4
f 71/90/8 74/127/8 73/121/8 70/91/8
f 13/81/15 80/133/15 87/129/15 51/83/15
f 44/106/6 84/134/6 83/128/6 34/107/6
f 14/80/12 79/126/12 80/133/12 13/81/12
f 137/135/36 116/136/36 105/137/36 109/138/36
f 136/139/36 120/140/36 101/141/36 103/142/36
f 135/143/36 122/144/36 107/145/36 108/146/36
f 127/147/36 125/148/36 115/149/36 114/150/36
f 126/151/36 106/152/36 117/153/36 119/154/36
f 108/146/36 107/145/36 106/152/36 126/151/36
f 122/144/36 127/147/36 114/150/36 107/145/36
f 112/155/36 113/156/36 118/157/36 128/158/36
f 105/137/36 112/155/36 128/158/36 104/159/36
f 102/160/36 99/161/36 98/162/36 129/163/36
f 113/156/36 102/160/36 129/163/36 118/157/36
f 111/164/36 124/165/36 130/166/36 110/167/36
f 110/167/36 130/166/36 121/168/36 99/161/36
f 101/141/36 123/169/36 131/170/36 100/171/36
f 100/171/36 131/170/36 124/165/36 111/164/36
f 109/138/36 105/137/36 104/159/36 132/172/36
f 120/140/36 133/173/36 123/169/36 101/141/36
f 99/161/36 121/168/36 134/174/36 98/162/36
f 125/148/36 136/139/36 103/142/36 115/149/36
f 119/154/36 117/153/36 116/136/36 137/135/36
f 45/175/37 130/176/37 124/177/37 33/178/37
f 28/179/37 121/180/37 130/176/37 45/175/37
f 46/181/37 131/182/37 123/183/37 32/184/37
f 33/178/37 124/177/37 131/182/37 46/181/37
f 47/185/3 132/186/3 104/30/3 21/29/3
f 24/22/5 109/21/5 132/187/5 47/188/5
f 48/189/7 133/190/7 120/50/7 25/49/7
f 32/184/37 123/183/37 133/191/37 48/192/37
f 17/18/3 98/17/3 134/193/3 49/194/3
f 49/195/37 134/196/37 121/180/37 28/179/37
usemtl Rest
f 7/197/10 115/198/10 103/199/10 20/200/10
f 19/201/11 102/202/11 113/203/11 6/204/11
f 18/205/8 100/206/8 111/207/8 5/208/8
f 22/209/1 106/210/1 107/211/1 3/212/1
f 4/213/18 99/214/18 102/202/18 19/201/18
f 31/215/15 116/216/15 117/217/15 8/218/15
f 1/219/16 101/220/16 100/206/16 18/205/16
f 6/204/13 113/203/13 112/221/13 27/222/13
f 5/208/9 111/207/9 110/223/9 26/224/9
f 97/225/36 79/226/36 86/227/36 85/228/36
f 96/229/36 87/230/36 80/231/36 88/232/36
f 95/233/36 91/234/36 90/235/36 89/236/36
f 94/237/36 92/238/36 78/239/36 77/240/36
f 89/236/36 90/235/36 92/238/36 94/237/36
f 74/241/36 89/236/36 94/237/36 73/242/36
f 73/242/36 94/237/36 77/240/36 93/243/36
f 75/244/36 76/245/36 91/234/36 95/233/36
f 82/246/36 75/244/36 95/233/36 81/247/36
f 81/247/36 95/233/36 89/236/36 74/241/36
f 83/248/36 84/249/36 87/230/36 96/229/36
f 76/245/36 83/248/36 96/229/36 91/234/36
f 91/234/36 96/229/36 88/232/36 90/235/36
f 88/232/36 80/231/36 79/226/36 97/225/36
f 90/235/36 88/232/36 97/225/36 92/238/36
f 92/238/36 97/225/36 85/228/36 78/239/36
f 8/218/12 117/217/12 106/210/12 22/209/12
f 26/224/2 110/223/2 99/250/2 4/251/2
f 27/222/6 112/221/6 105/252/6 2/253/6
f 29/254/14 114/255/14 115/198/14 7/197/14
f 3/256/4 107/257/4 114/255/4 29/254/4
f 2/258/17 105/259/17 116/216/17 31/215/17
f 20/200/19 103/199/19 101/260/19 1/261/19
